<svg width="57" height="57" viewBox="0 0 57 57" fill="none" xmlns="http://www.w3.org/2000/svg">
<rect width="57" height="57" rx="7" fill="#EFEFEF"/>
<line x1="6" y1="48.5" x2="51" y2="48.5" stroke="#7E7E7E" stroke-width="5"/>
<line x1="8.5" y1="51" x2="8.5" y2="6" stroke="#7E7E7E" stroke-width="5"/>
<path d="M33.9119 11.8182H38.6165V30.2273C38.608 31.9148 38.25 33.3679 37.5426 34.5866C36.8352 35.7969 35.8466 36.7301 34.5767 37.3864C33.3153 38.0341 31.8452 38.358 30.1662 38.358C28.6321 38.358 27.2514 38.0852 26.0241 37.5398C24.8054 36.9858 23.8381 36.1676 23.1222 35.0852C22.4063 34.0028 22.0483 32.6562 22.0483 31.0455H26.7656C26.7741 31.7528 26.9276 32.3622 27.2259 32.8736C27.5327 33.3849 27.9545 33.777 28.4915 34.0497C29.0284 34.3224 29.6463 34.4588 30.3452 34.4588C31.1037 34.4588 31.7472 34.3011 32.2756 33.9858C32.804 33.6619 33.2045 33.1847 33.4773 32.554C33.7585 31.9233 33.9034 31.1477 33.9119 30.2273V11.8182Z" fill="#7E7E7E"/>
<line x1="35" y1="14.07" x2="23" y2="14.07" stroke="#7E7E7E" stroke-width="4.5"/>
</svg>
