<svg width="57" height="57" viewBox="0 0 57 57" fill="none" xmlns="http://www.w3.org/2000/svg">
<rect width="57" height="57" rx="7" fill="#4E4E4E"/>
<line x1="6" y1="8.5" x2="51" y2="8.5" stroke="black" stroke-width="5"/>
<line x1="6" y1="48.5" x2="51" y2="48.5" stroke="black" stroke-width="5"/>
<line x1="8.5" y1="51" x2="8.5" y2="6" stroke="black" stroke-width="5"/>
<line x1="48.5" y1="51" x2="48.5" y2="6" stroke="black" stroke-width="5"/>
<path d="M28.5723 19C30.5187 19 32.4469 19.3831 34.2451 20.1279C36.0433 20.8728 37.6774 21.9655 39.0537 23.3418C40.4299 24.7181 41.5218 26.3522 42.2666 28.1504C43.0086 29.942 43.3927 31.8617 43.3955 33.8008H38.3945C38.3917 32.5183 38.1382 31.2485 37.6475 30.0635C37.2156 29.0209 36.6077 28.0611 35.8516 27.2266L35.5186 26.877C34.7206 26.079 33.7913 25.425 32.7734 24.9434L32.3311 24.748C31.1395 24.2545 29.862 24 28.5723 24C27.2825 24 26.0051 24.2545 24.8135 24.748L24.3721 24.9434C23.3539 25.425 22.4251 26.0788 21.627 26.877C20.7149 27.789 19.9917 28.8719 19.498 30.0635C19.0072 31.2485 18.7538 32.5182 18.751 33.8008H13.75C13.7528 31.8617 14.1359 29.942 14.8779 28.1504C15.6228 26.352 16.7154 24.7182 18.0918 23.3418C19.4682 21.9654 21.102 20.8728 22.9004 20.1279C24.6985 19.3832 26.626 19 28.5723 19Z" fill="black"/>
<line x1="16.25" y1="33.5" x2="16.25" y2="38.5" stroke="black" stroke-width="5"/>
<line x1="40.9004" y1="33.5" x2="40.9004" y2="38.5" stroke="black" stroke-width="5"/>
</svg>
