<svg width="162" height="37" viewBox="0 0 162 37" fill="none" xmlns="http://www.w3.org/2000/svg">
<mask id="mask0_139_154" style="mask-type:luminance" maskUnits="userSpaceOnUse" x="0" y="0" width="162" height="37">
<path d="M162 -2.00272e-05H0V36.9235H162V-2.00272e-05Z" fill="white"/>
</mask>
<g mask="url(#mask0_139_154)">
<path d="M28.7886 2.84802L20.1098 16.2919L11.4391 2.84802C10.2944 1.07119 8.32971 0.000224113 6.21886 0.000224113C2.78469 0.000224113 0 2.78312 0 6.21508V36.478H7.41231V10.8235L14.2157 22.2796C15.5715 24.1944 17.7716 25.3303 20.1179 25.3303C22.4643 25.3303 24.6644 24.1944 26.0202 22.2796L32.8236 10.8235V36.478H40.2359V6.21508C40.2277 2.78312 37.4431 0.000224113 34.017 0.000224113C31.9062 0.000224113 29.9415 1.07119 28.7967 2.84802H28.7886Z" fill="#8AB1FF"/>
<path d="M150.839 2.84775L142.16 16.2916L133.482 2.84775C132.336 1.07093 130.372 -4.00543e-05 128.261 -4.00543e-05C124.827 -4.00543e-05 122.042 2.78285 122.042 6.21482V36.4777H129.455V10.8232L136.257 22.2794C137.614 24.1941 139.814 25.3299 142.16 25.3299C144.506 25.3299 146.707 24.1941 148.062 22.2794L154.866 10.8232V36.4777H162.278V6.21482C162.278 2.78285 159.494 -4.00543e-05 156.059 -4.00543e-05C153.948 -4.00543e-05 151.983 1.07093 150.839 2.84775Z" fill="#8AB1FF"/>
<path d="M79.5788 7.48051V36.4777H72.1665V8.18637C72.1665 8.18637 57.6505 32.1046 57.6505 32.1128C57.0335 33.0945 56.4245 33.8896 55.7912 34.5143C55.3935 34.9037 54.9956 35.2364 54.5735 35.5042C53.4856 36.2019 52.284 36.5021 50.8308 36.5021C50.7577 36.5021 50.6847 36.5021 50.6116 36.5021C46.7715 36.3885 43.662 33.3947 43.3698 29.6057C43.3698 29.6057 43.3535 29.4028 43.3535 29.3136C43.3535 29.2162 43.3535 29.1189 43.3535 29.0216V11.1559C43.3535 9.78471 44.4657 8.67317 45.8379 8.67317H48.2816C49.6536 8.67317 50.7658 9.78471 50.7658 11.1559V28.2508L65.2739 4.39742C66.2806 2.79096 67.2629 1.69566 68.3508 0.997907C69.4386 0.300155 70.6402 -4.00543e-05 72.0935 -4.00543e-05C76.2259 -4.00543e-05 79.5788 3.35079 79.5788 7.48051Z" fill="#8AB1FF"/>
<path d="M50.757 4.9329V2.47454C50.757 1.10787 49.6485 -4.00543e-05 48.2809 -4.00543e-05H45.821C44.4534 -4.00543e-05 43.3447 1.10787 43.3447 2.47454V4.9329C43.3447 6.29957 44.4534 7.40748 45.821 7.40748H48.2809C49.6485 7.40748 50.757 6.29957 50.757 4.9329Z" fill="#8AB1FF"/>
<path d="M90.1027 4.9414V2.48305C90.1027 1.11637 88.9941 0.00846386 87.6266 0.00846386H85.1666C83.7991 0.00846386 82.6904 1.11637 82.6904 2.48305V4.9414C82.6904 6.30808 83.7991 7.41599 85.1666 7.41599H87.6266C88.9941 7.41599 90.1027 6.30808 90.1027 4.9414Z" fill="#8AB1FF"/>
<path d="M90.1095 17.2574V14.7991C90.1095 13.4324 89.0009 12.3246 87.6333 12.3246H85.1734C83.8058 12.3246 82.6973 13.4324 82.6973 14.7991V17.2574C82.6973 18.6242 83.8058 19.732 85.1734 19.732H87.6333C89.0009 19.732 90.1095 18.6242 90.1095 17.2574Z" fill="#8AB1FF"/>
<path d="M90.1095 34.011V31.5526C90.1095 30.186 89.0009 29.078 87.6333 29.078H85.1734C83.8058 29.078 82.6973 30.186 82.6973 31.5526V34.011C82.6973 35.3776 83.8058 36.4856 85.1734 36.4856H87.6333C89.0009 36.4856 90.1095 35.3776 90.1095 34.011Z" fill="#8AB1FF"/>
<path d="M91.3691 2.49062V4.93275C91.3691 6.30392 92.4814 7.41546 93.8534 7.41546H110.643C111.122 7.41546 111.511 7.80489 111.511 8.28358V11.464C111.511 11.9428 111.122 12.3322 110.643 12.3322H93.8534C92.4814 12.3322 91.3691 13.4437 91.3691 14.8148V17.257C91.3691 18.6281 92.4814 19.7397 93.8534 19.7397H110.643C111.122 19.7397 111.511 20.1292 111.511 20.6078V28.2182C111.511 28.6969 111.122 29.0863 110.643 29.0863H93.8534C92.4814 29.0863 91.3691 30.1979 91.3691 31.569V34.0111C91.3691 35.3823 92.4814 36.4939 93.8534 36.4939H112.705C116.139 36.4939 118.924 33.7109 118.924 30.279V6.23089C118.924 2.79894 116.139 0.0160427 112.705 0.0160427H93.8534C92.4814 0.0160427 91.3691 1.12757 91.3691 2.49874V2.49062Z" fill="#8AB1FF"/>
</g>
</svg>
