<svg width="162" height="37" viewBox="0 0 162 37" fill="none" xmlns="http://www.w3.org/2000/svg">
<mask id="mask0_561_80" style="mask-type:luminance" maskUnits="userSpaceOnUse" x="0" y="0" width="162" height="37">
<path d="M162 0H0V36.9235H162V0Z" fill="white"/>
</mask>
<g mask="url(#mask0_561_80)">
<path d="M28.7886 2.84804L20.1098 16.2919L11.4391 2.84804C10.2944 1.07121 8.32971 0.000244141 6.21886 0.000244141C2.78469 0.000244141 0 2.78314 0 6.2151V36.4781H7.41231V10.8235L14.2157 22.2796C15.5715 24.1944 17.7716 25.3303 20.1179 25.3303C22.4643 25.3303 24.6644 24.1944 26.0202 22.2796L32.8236 10.8235V36.4781H40.2359V6.2151C40.2277 2.78314 37.4431 0.000244141 34.017 0.000244141C31.9062 0.000244141 29.9415 1.07121 28.7967 2.84804H28.7886Z" fill="#5A89E6"/>
<path d="M150.838 2.84777L142.159 16.2917L133.481 2.84777C132.335 1.07095 130.371 -1.90735e-05 128.26 -1.90735e-05C124.826 -1.90735e-05 122.041 2.78287 122.041 6.21484V36.4777H129.454V10.8232L136.256 22.2794C137.613 24.1941 139.813 25.33 142.159 25.33C144.505 25.33 146.706 24.1941 148.061 22.2794L154.865 10.8232V36.4777H162.277V6.21484C162.277 2.78287 159.493 -1.90735e-05 156.058 -1.90735e-05C153.947 -1.90735e-05 151.982 1.07095 150.838 2.84777Z" fill="#5A89E6"/>
<path d="M79.5788 7.48053V36.4777H72.1665V8.18639C72.1665 8.18639 57.6505 32.1046 57.6505 32.1128C57.0335 33.0945 56.4245 33.8896 55.7912 34.5143C55.3935 34.9037 54.9956 35.2364 54.5735 35.5042C53.4856 36.202 52.284 36.5021 50.8308 36.5021C50.7577 36.5021 50.6847 36.5021 50.6116 36.5021C46.7715 36.3885 43.662 33.3947 43.3698 29.6057C43.3698 29.6057 43.3535 29.4028 43.3535 29.3136C43.3535 29.2163 43.3535 29.1189 43.3535 29.0216V11.1559C43.3535 9.78473 44.4657 8.67319 45.8379 8.67319H48.2816C49.6536 8.67319 50.7658 9.78473 50.7658 11.1559V28.2508L65.2739 4.39744C66.2806 2.79098 67.2629 1.69568 68.3508 0.997928C69.4386 0.300176 70.6402 -1.90735e-05 72.0935 -1.90735e-05C76.2259 -1.90735e-05 79.5788 3.35081 79.5788 7.48053Z" fill="#5A89E6"/>
<path d="M50.758 4.93292V2.47456C50.758 1.10789 49.6495 -1.90735e-05 48.2819 -1.90735e-05H45.822C44.4544 -1.90735e-05 43.3457 1.10789 43.3457 2.47456V4.93292C43.3457 6.29959 44.4544 7.4075 45.822 7.4075H48.2819C49.6495 7.4075 50.758 6.29959 50.758 4.93292Z" fill="#5A89E6"/>
<path d="M90.1037 4.94142V2.48307C90.1037 1.11639 88.9951 0.00848389 87.6276 0.00848389H85.1676C83.8001 0.00848389 82.6914 1.11639 82.6914 2.48307V4.94142C82.6914 6.3081 83.8001 7.41601 85.1676 7.41601H87.6276C88.9951 7.41601 90.1037 6.3081 90.1037 4.94142Z" fill="#5A89E6"/>
<path d="M90.1095 17.2574V14.7991C90.1095 13.4324 89.0009 12.3246 87.6333 12.3246H85.1734C83.8058 12.3246 82.6973 13.4324 82.6973 14.7991V17.2574C82.6973 18.6242 83.8058 19.732 85.1734 19.732H87.6333C89.0009 19.732 90.1095 18.6242 90.1095 17.2574Z" fill="#5A89E6"/>
<path d="M90.1095 34.011V31.5526C90.1095 30.186 89.0009 29.0781 87.6333 29.0781H85.1734C83.8058 29.0781 82.6973 30.186 82.6973 31.5526V34.011C82.6973 35.3777 83.8058 36.4856 85.1734 36.4856H87.6333C89.0009 36.4856 90.1095 35.3777 90.1095 34.011Z" fill="#5A89E6"/>
<path d="M91.3691 2.49065V4.93278C91.3691 6.30394 92.4814 7.41548 93.8534 7.41548H110.643C111.122 7.41548 111.511 7.80491 111.511 8.2836V11.4641C111.511 11.9428 111.122 12.3322 110.643 12.3322H93.8534C92.4814 12.3322 91.3691 13.4437 91.3691 14.8149V17.257C91.3691 18.6281 92.4814 19.7398 93.8534 19.7398H110.643C111.122 19.7398 111.511 20.1292 111.511 20.6078V28.2182C111.511 28.6969 111.122 29.0864 110.643 29.0864H93.8534C92.4814 29.0864 91.3691 30.1979 91.3691 31.569V34.0111C91.3691 35.3823 92.4814 36.4939 93.8534 36.4939H112.705C116.139 36.4939 118.924 33.7109 118.924 30.279V6.23091C118.924 2.79896 116.139 0.0160637 112.705 0.0160637H93.8534C92.4814 0.0160637 91.3691 1.1276 91.3691 2.49876V2.49065Z" fill="#5A89E6"/>
</g>
</svg>
